<svg width="20" height="20" viewBox="0 0 20 20" fill="none" xmlns="http://www.w3.org/2000/svg">
<g clip-path="url(#clip0_7_10)">
<path d="M3.03 9.41083C2.87377 9.56711 2.78601 9.77903 2.78601 10C2.78601 10.221 2.87377 10.4329 3.03 10.5892L7.74417 15.3033C7.82104 15.3829 7.91299 15.4464 8.01466 15.4901C8.11633 15.5338 8.22568 15.5567 8.33633 15.5577C8.44698 15.5587 8.55671 15.5376 8.65913 15.4957C8.76154 15.4538 8.85458 15.3919 8.93283 15.3137C9.01107 15.2354 9.07295 15.1424 9.11485 15.04C9.15675 14.9375 9.17784 14.8278 9.17688 14.7172C9.17591 14.6065 9.15292 14.4972 9.10925 14.3955C9.06558 14.2938 9.00209 14.2019 8.9225 14.125L5.63083 10.8333H16.6667C16.8877 10.8333 17.0996 10.7455 17.2559 10.5893C17.4122 10.433 17.5 10.221 17.5 10C17.5 9.77899 17.4122 9.56702 17.2559 9.41074C17.0996 9.25446 16.8877 9.16667 16.6667 9.16667H5.63083L8.9225 5.875C9.0743 5.71783 9.15829 5.50733 9.15639 5.28883C9.1545 5.07033 9.06685 4.86132 8.91235 4.70682C8.75784 4.55231 8.54883 4.46467 8.33033 4.46277C8.11184 4.46087 7.90133 4.54487 7.74417 4.69666L3.03 9.41083Z" fill="#1272EC"/>
</g>
<defs>
<clipPath id="clip0_7_10">
<rect width="20" height="20" fill="white" transform="matrix(0 -1 1 0 0 20)"/>
</clipPath>
</defs>
</svg>
