<svg width="20" height="27" viewBox="0 0 20 27" fill="none" xmlns="http://www.w3.org/2000/svg">
<path d="M1.25 0.5H18.75C19.0815 0.5 19.3995 0.631696 19.6339 0.866116C19.8683 1.10054 20 1.41848 20 1.75V25.6787C20.0001 25.7905 19.9703 25.9003 19.9136 25.9966C19.8569 26.0929 19.7755 26.1722 19.6777 26.2264C19.5799 26.2805 19.4694 26.3074 19.3577 26.3043C19.246 26.3012 19.1371 26.2682 19.0425 26.2087L10 20.5375L0.9575 26.2075C0.86296 26.2669 0.754234 26.2999 0.642627 26.303C0.531021 26.3062 0.420608 26.2794 0.322869 26.2254C0.22513 26.1714 0.143634 26.0923 0.0868535 25.9961C0.0300735 25.9 8.30886e-05 25.7904 0 25.6787V1.75C0 1.41848 0.131696 1.10054 0.366117 0.866116C0.600537 0.631696 0.918479 0.5 1.25 0.5Z" fill="#767674"/>
</svg>
