<svg width="32" height="32" viewBox="0 0 32 32" fill="none" xmlns="http://www.w3.org/2000/svg">
<path d="M25.3334 16C26.7907 16 28.156 16.3893 29.3334 17.0707V8C29.3334 7.64638 29.1929 7.30724 28.9428 7.05719C28.6928 6.80714 28.3536 6.66667 28 6.66667H16.552L13.8854 4H4.00002C3.6464 4 3.30726 4.14048 3.05721 4.39052C2.80716 4.64057 2.66669 4.97971 2.66669 5.33333V26.6667C2.66669 27.0203 2.80716 27.3594 3.05721 27.6095C3.30726 27.8595 3.6464 28 4.00002 28H18.404C17.7018 26.7838 17.3322 25.4041 17.3322 23.9997C17.3323 22.5953 17.702 21.2157 18.4043 19.9995C19.1066 18.7833 20.1166 17.7734 21.333 17.0714C22.5493 16.3693 23.929 15.9998 25.3334 16ZM27.2187 24L30.048 26.828L28.1614 28.7133L25.3347 25.8867L22.5054 28.7133L20.62 26.828L23.4467 24L20.62 21.172L22.5054 19.2853L25.3334 22.1147L28.1614 19.2853L30.048 21.172L27.2187 24Z" fill="#fd5558"/>
</svg>
