<svg width="32" height="32" viewBox="0 0 32 32" fill="none" xmlns="http://www.w3.org/2000/svg">
<path d="M30.3583 3.59906H22.5924C22.1353 3.59906 21.7061 3.84225 21.4398 4.25225L20.7613 5.29687C20.4949 5.70687 20.0658 5.95006 19.6086 5.95006H6.33525C5.55213 5.95006 4.91725 6.65037 4.91725 7.51431V24.0487C4.91725 24.9126 5.55213 25.6129 6.33525 25.6129H26.7919C26.7512 25.7942 26.7306 25.9794 26.7305 26.1651C26.7305 27.5584 27.86 28.688 29.2534 28.688C30.5821 28.688 31.6701 27.6606 31.7683 26.3571C31.773 26.3255 31.7763 26.2933 31.7763 26.2604V5.16331C31.7763 4.29937 31.1414 3.59906 30.3583 3.59906Z" fill="#BC7520"/>
<path d="M10.4876 11.4468L11.3357 12.29C11.6686 12.6209 12.1372 12.8172 12.5944 12.8172H25.8678C26.6509 12.8172 27.3995 13.3824 27.5398 14.0797L30.2248 27.4254C30.3651 28.1227 29.8439 28.688 29.0608 28.688H5.03782C4.25469 28.688 3.50613 28.1227 3.36582 27.4254L1.10363 16.1811L0.42682 12.8172L0.29907 12.1822C0.158757 11.4849 0.679882 10.9196 1.46301 10.9196H9.22888C9.68607 10.9196 10.1548 11.1159 10.4876 11.4468Z" fill="#FFB636"/>
</svg>
