<svg width="8" height="30" viewBox="0 0 8 30" fill="none" xmlns="http://www.w3.org/2000/svg">
<path d="M4.00002 23.3333C4.88408 23.3333 5.73192 23.6845 6.35704 24.3096C6.98216 24.9348 7.33335 25.7826 7.33335 26.6667C7.33335 27.5507 6.98216 28.3986 6.35704 29.0237C5.73192 29.6488 4.88408 30 4.00002 30C3.11597 30 2.26812 29.6488 1.643 29.0237C1.01788 28.3986 0.666687 27.5507 0.666687 26.6667C0.666687 25.7826 1.01788 24.9348 1.643 24.3096C2.26812 23.6845 3.11597 23.3333 4.00002 23.3333ZM4.00002 11.6667C4.88408 11.6667 5.73192 12.0179 6.35704 12.643C6.98216 13.2681 7.33335 14.1159 7.33335 15C7.33335 15.8841 6.98216 16.7319 6.35704 17.357C5.73192 17.9821 4.88408 18.3333 4.00002 18.3333C3.11597 18.3333 2.26812 17.9821 1.643 17.357C1.01788 16.7319 0.666687 15.8841 0.666687 15C0.666687 14.1159 1.01788 13.2681 1.643 12.643C2.26812 12.0179 3.11597 11.6667 4.00002 11.6667ZM4.00002 7.15256e-07C4.88408 7.15256e-07 5.73192 0.351191 6.35704 0.976312C6.98216 1.60143 7.33335 2.44928 7.33335 3.33333C7.33335 4.21739 6.98216 5.06523 6.35704 5.69036C5.73192 6.31548 4.88408 6.66667 4.00002 6.66667C3.11597 6.66667 2.26812 6.31548 1.643 5.69036C1.01788 5.06523 0.666687 4.21739 0.666687 3.33333C0.666687 2.44928 1.01788 1.60143 1.643 0.976312C2.26812 0.351191 3.11597 7.15256e-07 4.00002 7.15256e-07Z" fill="black"/>
</svg>
